<?xml version="1.0" standalone="no"?>
<!DOCTYPE svg PUBLIC "-//W3C//DTD SVG 20010904//EN"
 "http://www.w3.org/TR/2001/REC-SVG-20010904/DTD/svg10.dtd">
<svg version="1.0" xmlns="http://www.w3.org/2000/svg"
 width="128.000000pt" height="128.000000pt" viewBox="0 0 128.000000 128.000000"
 preserveAspectRatio="xMidYMid meet">

<g transform="translate(0.000000,128.000000) scale(0.100000,-0.100000)"
fill="#000000" stroke="none">
<path d="M505 1264 c-244 -52 -438 -249 -489 -497 -20 -96 -20 -158 0 -254 52
-252 246 -446 496 -497 97 -20 159 -20 256 0 250 51 444 245 496 497 20 96 20
158 0 255 -71 347 -411 569 -759 496z m152 -240 c3 -8 1 -20 -5 -26 -15 -15
-43 8 -35 28 7 19 32 18 40 -2z m-212 -25 c0 -7 -8 -15 -17 -17 -18 -3 -25 18
-11 32 10 10 28 1 28 -15z m421 10 c10 -17 -13 -36 -27 -22 -12 12 -4 33 11
33 5 0 12 -5 16 -11z m-358 -105 c2 -12 -4 -24 -12 -27 -20 -8 -47 19 -39 39
8 22 47 13 51 -12z m310 0 c2 -12 -4 -24 -12 -27 -20 -8 -47 19 -39 39 8 22
47 13 51 -12z m-153 -29 c0 -35 -31 -47 -51 -20 -18 25 0 57 29 53 17 -2 22
-10 22 -33z m-338 -41 c3 -8 1 -20 -5 -26 -15 -15 -43 8 -35 28 7 19 32 18 40
-2z m661 -6 c-2 -13 -10 -23 -18 -23 -8 0 -16 10 -18 23 -3 17 2 22 18 22 16
0 21 -5 18 -22z m-370 -36 c6 -9 12 -24 12 -34 0 -24 -35 -58 -60 -58 -25 0
-60 34 -60 58 0 54 73 77 108 34z m132 8 c11 -11 20 -29 20 -40 0 -25 -34 -60
-58 -60 -29 0 -62 29 -62 56 0 29 32 64 60 64 11 0 29 -9 40 -20z m-289 -26
c9 -11 10 -20 2 -32 -13 -22 -43 -22 -56 -1 -24 38 25 68 54 33z m417 -10 c2
-11 -4 -26 -12 -33 -31 -26 -71 14 -45 45 17 21 53 14 57 -12z m-338 -84 c11
-11 20 -29 20 -40 0 -26 -34 -60 -60 -60 -11 0 -29 9 -40 20 -11 11 -20 29
-20 40 0 11 9 29 20 40 11 11 29 20 40 20 11 0 29 -9 40 -20z m280 0 c11 -11
20 -29 20 -40 0 -26 -34 -60 -60 -60 -11 0 -29 9 -40 20 -11 11 -20 29 -20 40
0 11 9 29 20 40 11 11 29 20 40 20 11 0 29 -9 40 -20z m-470 -25 c18 -21 5
-47 -22 -43 -26 3 -37 36 -16 49 18 12 24 11 38 -6z m627 -1 c8 -21 -19 -46
-40 -38 -17 6 -23 35 -10 47 12 13 44 7 50 -9z m-741 -5 c10 -17 -13 -36 -27
-22 -12 12 -4 33 11 33 5 0 12 -5 16 -11z m840 0 c10 -17 -13 -36 -27 -22 -12
12 -4 33 11 33 5 0 12 -5 16 -11z m-466 -89 c11 -11 20 -29 20 -40 0 -26 -34
-60 -60 -60 -11 0 -29 9 -40 20 -11 11 -20 29 -20 40 0 11 9 29 20 40 11 11
29 20 40 20 11 0 29 -9 40 -20z m140 0 c11 -11 20 -29 20 -40 0 -26 -34 -60
-60 -60 -11 0 -29 9 -40 20 -11 11 -20 29 -20 40 0 11 9 29 20 40 11 11 29 20
40 20 11 0 29 -9 40 -20z m-294 -14 c15 -12 17 -18 8 -33 -15 -24 -58 -24 -62
0 -4 18 14 47 27 47 4 0 16 -6 27 -14z m414 -1 c18 -22 8 -50 -19 -50 -32 0
-49 28 -32 49 17 20 35 20 51 1z m-542 -93 c3 -17 -2 -22 -17 -22 -14 0 -21 6
-21 18 0 38 33 41 38 4z m660 0 c3 -17 -2 -22 -17 -22 -14 0 -21 6 -21 18 0
38 33 41 38 4z m-334 -18 c24 -9 20 -51 -5 -59 -31 -10 -55 16 -40 44 12 22
20 25 45 15z m-150 -39 c20 -20 10 -45 -19 -45 -29 0 -39 25 -19 45 9 8 17 15
19 15 2 0 10 -7 19 -15z m320 -10 c6 -18 -20 -39 -39 -31 -18 7 -20 43 -2 49
17 6 34 -2 41 -18z m-378 -96 c10 -17 -13 -36 -27 -22 -12 12 -4 33 11 33 5 0
12 -5 16 -11z m420 0 c10 -17 -13 -36 -27 -22 -12 12 -4 33 11 33 5 0 12 -5
16 -11z m-208 -22 c4 -21 -27 -35 -38 -17 -12 19 0 42 19 38 9 -2 17 -11 19
-21z"/>
</g>
</svg>
